<svg xmlns="http://www.w3.org/2000/svg" viewBox="0 0 566.71 555.73"><title>construction_groupy</title><g id="Layer_1" data-name="Layer 1"><circle class="cls-1" cx="311.99" cy="391.18" r="9.89"/><circle class="cls-1" cx="355.37" cy="391.18" r="9.89"/><polygon class="cls-1" points="195.7 302.27 195.7 239.63 258.76 239.63 258.76 207.63 163.7 207.63 163.7 302.27 195.7 302.27"/><polygon class="cls-1" points="216.7 523.73 216.7 354.27 184.7 354.27 184.7 555.73 480.81 555.73 480.81 523.73 448.81 523.73 216.7 523.73"/><polygon class="cls-1" points="279.76 259.63 279.76 291.63 448.81 291.63 448.81 401.79 480.81 401.79 480.81 259.63 279.76 259.63"/><rect class="cls-1" x="643.62" y="563.72" width="32" height="121.94" transform="translate(1342.23 165.06) rotate(113.8)"/><rect class="cls-1" x="457.7" y="524.15" width="65.83" height="13.3" transform="translate(-268.99 26.25) rotate(-14)"/></g><g id="Layer_2" data-name="Layer 2"><polygon class="cls-2" points="33.81 86.28 36.83 83.26 23.12 69.55 36.83 55.83 33.81 52.81 20.1 66.53 6.38 52.81 3.36 55.83 17.07 69.55 3.36 83.26 6.38 86.28 20.1 72.57 33.81 86.28"/><polygon class="cls-2" points="36.34 82.1 7.9 82.1 7.9 58.29 36.34 58.29 36.34 51.27 0 51.27 0 89.12 36.34 89.12 36.34 82.1"/><polygon class="cls-2" points="95.33 275.86 92.19 272.72 77.94 286.97 63.69 272.72 60.55 275.86 74.8 290.11 60.55 304.36 63.69 307.5 77.94 293.25 92.19 307.5 95.33 304.36 81.08 290.11 95.33 275.86"/><polygon class="cls-2" points="95.33 244.99 92.19 241.85 77.94 256.1 63.69 241.85 60.55 244.99 74.8 259.24 60.55 273.49 63.69 276.63 77.94 262.38 92.19 276.63 95.33 273.49 81.08 259.24 95.33 244.99"/><polygon class="cls-2" points="95.33 214.12 92.19 210.98 77.94 225.23 63.69 210.98 60.55 214.12 74.8 228.37 60.55 242.61 63.69 245.75 77.94 231.5 92.19 245.75 95.33 242.61 81.08 228.37 95.33 214.12"/><polygon class="cls-2" points="95.33 182.24 92.19 179.1 77.94 193.35 63.69 179.1 60.55 182.24 74.8 196.49 60.55 210.74 63.69 213.88 77.94 199.63 92.19 213.88 95.33 210.74 81.08 196.49 95.33 182.24"/><polygon class="cls-2" points="95.33 150.37 92.19 147.23 77.94 161.48 63.69 147.23 60.55 150.37 74.8 164.62 60.55 178.87 63.69 182.01 77.94 167.76 92.19 182.01 95.33 178.87 81.08 164.62 95.33 150.37"/><polygon class="cls-2" points="95.33 120.5 92.19 117.36 77.94 131.61 63.69 117.36 60.55 120.5 74.8 134.75 60.55 149 63.69 152.13 77.94 137.89 92.19 152.13 95.33 149 81.08 134.75 95.33 120.5"/><polygon class="cls-2" points="95.33 87.62 92.19 84.48 77.94 98.73 63.69 84.48 60.55 87.62 74.8 101.87 60.55 116.12 63.69 119.26 77.94 105.01 92.19 119.26 95.33 116.12 81.08 101.87 95.33 87.62"/><path class="cls-2" d="M214.1,188.13v231h39.33v-231Zm32,222.82H221.39V197.24h24.74Z" transform="translate(-155.15 -108.21)"/><rect class="cls-2" x="62.12" y="272.45" width="33.62" height="6.34"/><rect class="cls-2" x="62.12" y="241.05" width="33.62" height="6.34"/><rect class="cls-2" x="62.12" y="209.65" width="33.62" height="6.34"/><rect class="cls-2" x="62.12" y="178.25" width="33.62" height="6.34"/><rect class="cls-2" x="62.12" y="146.85" width="33.62" height="6.34"/><rect class="cls-2" x="62.12" y="115.45" width="33.62" height="6.34"/><polygon class="cls-2" points="63.94 86.93 66.96 83.91 53.25 70.19 66.96 56.48 63.94 53.46 50.23 67.17 36.52 53.46 33.49 56.48 47.21 70.19 33.49 83.91 36.52 86.93 50.23 73.22 63.94 86.93"/><polygon class="cls-2" points="124.21 86.28 127.23 83.26 113.52 69.55 127.23 55.83 124.21 52.81 110.5 66.53 96.78 52.81 93.76 55.83 107.48 69.55 93.76 83.26 96.78 86.28 110.5 72.57 124.21 86.28"/><polygon class="cls-2" points="154.92 86.28 157.94 83.26 144.23 69.55 157.94 55.83 154.92 52.81 141.21 66.53 127.5 52.81 124.47 55.83 138.19 69.55 124.47 83.26 127.5 86.28 141.21 72.57 154.92 86.28"/><polygon class="cls-2" points="184.63 86.28 187.65 83.26 173.94 69.55 187.65 55.83 184.63 52.81 170.92 66.53 157.21 52.81 154.18 55.83 167.9 69.55 154.18 83.26 157.21 86.28 170.92 72.57 184.63 86.28"/><polygon class="cls-2" points="215.34 86.28 218.37 83.26 204.65 69.55 218.37 55.83 215.34 52.81 201.63 66.53 187.91 52.81 184.89 55.83 198.61 69.55 184.89 83.26 187.91 86.28 201.63 72.57 215.34 86.28"/><polygon class="cls-2" points="247.05 86.28 250.08 83.26 236.36 69.55 250.08 55.83 247.05 52.81 233.34 66.53 219.63 52.81 216.6 55.83 230.32 69.55 216.6 83.26 219.63 86.28 233.34 72.57 247.05 86.28"/><path class="cls-2" d="M406.93,159.48H187.13v37.85h219.8ZM195,190.31V166.5H400.7v23.81Z" transform="translate(-155.15 -108.21)"/><rect class="cls-2" x="85.02" y="42.45" width="6.11" height="32.36"/><rect class="cls-2" x="123.37" y="54.32" width="6.1" height="32.36"/><rect class="cls-2" x="153.59" y="54.32" width="6.11" height="32.36"/><rect class="cls-2" x="183.8" y="54.32" width="6.11" height="32.36"/><rect class="cls-2" x="214.02" y="54.32" width="6.11" height="32.36"/><polygon class="cls-2" points="246.08 53.91 246.08 57.76 248 55.83 246.08 53.91"/><polygon class="cls-2" points="246.08 85.19 248 83.26 246.08 81.34 246.08 85.19"/><polygon class="cls-2" points="264.21 69.34 259.18 68.28 246.08 81.43 246.08 85.09 247.26 86.28 261.89 71.71 274.69 86.28 277.71 83.26 264 69.55 264.21 69.34"/><polygon class="cls-2" points="246.08 51.27 246.08 56.54 270.51 82.1 246.08 82.1 246.08 89.12 283.42 89.12 251.78 51.27 246.08 51.27"/><rect class="cls-2" x="246.08" y="54.32" width="5.69" height="32.36"/><polygon class="cls-2" points="85.58 12.49 71.64 12.49 72.21 11.44 85.01 11.44 85.58 12.49"/><polygon class="cls-2" points="61.71 35.56 67.97 35.56 78.16 23.1 87.91 35.56 94.17 35.56 80.09 20.74 85.64 13.97 83.97 12.99 78.24 18.79 72.72 12.99 71.02 13.97 76.32 20.74 61.71 35.56"/><polygon class="cls-2" points="66.28 36.56 73.45 14.85 83.78 14.85 90.94 36.56 98.21 36.56 85.58 12.49 71.64 12.49 59.01 36.56 66.28 36.56"/><polygon class="cls-2" points="95.68 36.56 93.09 30.9 64.67 30.9 62.17 36.56 95.68 36.56"/><polygon class="cls-2" points="73.09 11.44 75.14 11.44 78.47 7.37 81.65 11.44 83.69 11.44 79.1 6.6 80.91 4.39 80.36 4.07 78.49 5.97 76.69 4.07 76.13 4.39 77.86 6.6 73.09 11.44"/><polygon class="cls-2" points="74.58 11.44 76.93 4.35 80.3 4.35 82.64 11.44 85.01 11.44 80.89 3.58 76.33 3.58 72.21 11.44 74.58 11.44"/><polygon class="cls-2" points="84.19 11.44 83.34 9.59 74.06 9.59 73.24 11.44 84.19 11.44"/><rect class="cls-2" x="32.66" y="533.97" width="93.17" height="21.19"/><rect class="cls-2" x="199.08" y="89.12" width="5.69" height="121.85"/><rect class="cls-2" x="59.01" y="36.56" width="39.27" height="43.36"/><polygon class="cls-2" points="95.33 498.68 92.19 495.55 77.94 509.79 63.69 495.55 60.55 498.68 74.8 512.93 60.55 527.18 63.69 530.32 77.94 516.07 92.19 530.32 95.33 527.18 81.08 512.93 95.33 498.68"/><polygon class="cls-2" points="95.33 467.81 92.19 464.67 77.94 478.92 63.69 464.67 60.55 467.81 74.8 482.06 60.55 496.31 63.69 499.45 77.94 485.2 92.19 499.45 95.33 496.31 81.08 482.06 95.33 467.81"/><polygon class="cls-2" points="95.33 436.94 92.19 433.8 77.94 448.05 63.69 433.8 60.55 436.94 74.8 451.19 60.55 465.44 63.69 468.58 77.94 454.33 92.19 468.58 95.33 465.44 81.08 451.19 95.33 436.94"/><polygon class="cls-2" points="95.33 405.07 92.19 401.93 77.94 416.18 63.69 401.93 60.55 405.07 74.8 419.31 60.55 433.56 63.69 436.7 77.94 422.45 92.19 436.7 95.33 433.56 81.08 419.31 95.33 405.07"/><polygon class="cls-2" points="95.33 373.19 92.19 370.05 77.94 384.3 63.69 370.05 60.55 373.19 74.8 387.44 60.55 401.69 63.69 404.83 77.94 390.58 92.19 404.83 95.33 401.69 81.08 387.44 95.33 373.19"/><polygon class="cls-2" points="95.33 343.32 92.19 340.18 77.94 354.43 63.69 340.18 60.55 343.32 74.8 357.57 60.55 371.82 63.69 374.96 77.94 360.71 92.19 374.96 95.33 371.82 81.08 357.57 95.33 343.32"/><polygon class="cls-2" points="95.33 310.45 92.19 307.31 77.94 321.56 63.69 307.31 60.55 310.45 74.8 324.7 60.55 338.95 63.69 342.09 77.94 327.84 92.19 342.09 95.33 338.95 81.08 324.7 95.33 310.45"/><path class="cls-2" d="M214.1,411V642h39.33V411Zm32,222.82H221.39V420.06h24.74Z" transform="translate(-155.15 -108.21)"/><rect class="cls-2" x="62.12" y="495.28" width="33.62" height="6.34"/><rect class="cls-2" x="62.12" y="463.87" width="33.62" height="6.34"/><rect class="cls-2" x="62.12" y="432.47" width="33.62" height="6.34"/><rect class="cls-2" x="62.12" y="401.07" width="33.62" height="6.34"/><rect class="cls-2" x="62.12" y="369.67" width="33.62" height="6.34"/><rect class="cls-2" x="62.12" y="338.27" width="33.62" height="6.34"/><line class="cls-2" x1="77.77" y1="1.92" x2="251.19" y2="53.21"/><line class="cls-2" x1="1.1" y1="52.96" x2="79.43" y2="1.68"/><polygon class="cls-1" points="33.81 86.28 36.83 83.26 23.12 69.55 36.83 55.83 33.81 52.81 20.1 66.53 6.38 52.81 3.36 55.83 17.07 69.55 3.36 83.26 6.38 86.28 20.1 72.57 33.81 86.28"/><polygon class="cls-1" points="36.34 82.1 7.9 82.1 7.9 58.29 36.34 58.29 36.34 51.27 0 51.27 0 89.12 36.34 89.12 36.34 82.1"/><polygon class="cls-1" points="95.33 275.86 92.19 272.72 77.94 286.97 63.69 272.72 60.55 275.86 74.8 290.11 60.55 304.36 63.69 307.5 77.94 293.25 92.19 307.5 95.33 304.36 81.08 290.11 95.33 275.86"/><polygon class="cls-1" points="95.33 244.99 92.19 241.85 77.94 256.1 63.69 241.85 60.55 244.99 74.8 259.24 60.55 273.49 63.69 276.63 77.94 262.38 92.19 276.63 95.33 273.49 81.08 259.24 95.33 244.99"/><polygon class="cls-1" points="95.33 214.12 92.19 210.98 77.94 225.23 63.69 210.98 60.55 214.12 74.8 228.37 60.55 242.61 63.69 245.75 77.94 231.5 92.19 245.75 95.33 242.61 81.08 228.37 95.33 214.12"/><polygon class="cls-1" points="95.33 182.24 92.19 179.1 77.94 193.35 63.69 179.1 60.55 182.24 74.8 196.49 60.55 210.74 63.69 213.88 77.94 199.63 92.19 213.88 95.33 210.74 81.08 196.49 95.33 182.24"/><polygon class="cls-1" points="95.33 150.37 92.19 147.23 77.94 161.48 63.69 147.23 60.55 150.37 74.8 164.62 60.55 178.87 63.69 182.01 77.94 167.76 92.19 182.01 95.33 178.87 81.08 164.62 95.33 150.37"/><polygon class="cls-1" points="95.33 120.5 92.19 117.36 77.94 131.61 63.69 117.36 60.55 120.5 74.8 134.75 60.55 149 63.69 152.13 77.94 137.89 92.19 152.13 95.33 149 81.08 134.75 95.33 120.5"/><polygon class="cls-1" points="95.33 87.62 92.19 84.48 77.94 98.73 63.69 84.48 60.55 87.62 74.8 101.87 60.55 116.12 63.69 119.26 77.94 105.01 92.19 119.26 95.33 116.12 81.08 101.87 95.33 87.62"/><path class="cls-1" d="M214.1,188.13v231h39.33v-231Zm32,222.82H221.39V197.24h24.74Z" transform="translate(-155.15 -108.21)"/><rect class="cls-1" x="62.12" y="272.45" width="33.62" height="6.34"/><rect class="cls-1" x="62.12" y="241.05" width="33.62" height="6.34"/><rect class="cls-1" x="62.12" y="209.65" width="33.62" height="6.34"/><rect class="cls-1" x="62.12" y="178.25" width="33.62" height="6.34"/><rect class="cls-1" x="62.12" y="146.85" width="33.62" height="6.34"/><rect class="cls-1" x="62.12" y="115.45" width="33.62" height="6.34"/><polygon class="cls-1" points="63.94 86.93 66.96 83.91 53.25 70.19 66.96 56.48 63.94 53.46 50.23 67.17 36.52 53.46 33.49 56.48 47.21 70.19 33.49 83.91 36.52 86.93 50.23 73.22 63.94 86.93"/><polygon class="cls-1" points="124.21 86.28 127.23 83.26 113.52 69.55 127.23 55.83 124.21 52.81 110.5 66.53 96.78 52.81 93.76 55.83 107.48 69.55 93.76 83.26 96.78 86.28 110.5 72.57 124.21 86.28"/><polygon class="cls-1" points="154.92 86.28 157.94 83.26 144.23 69.55 157.94 55.83 154.92 52.81 141.21 66.53 127.5 52.81 124.47 55.83 138.19 69.55 124.47 83.26 127.5 86.28 141.21 72.57 154.92 86.28"/><polygon class="cls-1" points="184.63 86.28 187.65 83.26 173.94 69.55 187.65 55.83 184.63 52.81 170.92 66.53 157.21 52.81 154.18 55.83 167.9 69.55 154.18 83.26 157.21 86.28 170.92 72.57 184.63 86.28"/><polygon class="cls-1" points="215.34 86.28 218.37 83.26 204.65 69.55 218.37 55.83 215.34 52.81 201.63 66.53 187.91 52.81 184.89 55.83 198.61 69.55 184.89 83.26 187.91 86.28 201.63 72.57 215.34 86.28"/><polygon class="cls-1" points="247.05 86.28 250.08 83.26 236.36 69.55 250.08 55.83 247.05 52.81 233.34 66.53 219.63 52.81 216.6 55.83 230.32 69.55 216.6 83.26 219.63 86.28 233.34 72.57 247.05 86.28"/><path class="cls-1" d="M406.93,159.48H187.13v37.85h219.8ZM195,190.31V166.5H400.7v23.81Z" transform="translate(-155.15 -108.21)"/><rect class="cls-1" x="85.02" y="42.45" width="6.11" height="32.36"/><rect class="cls-1" x="123.37" y="54.32" width="6.1" height="32.36"/><rect class="cls-1" x="153.59" y="54.32" width="6.11" height="32.36"/><rect class="cls-1" x="183.8" y="54.32" width="6.11" height="32.36"/><rect class="cls-1" x="214.02" y="54.32" width="6.11" height="32.36"/><polygon class="cls-1" points="246.08 53.91 246.08 57.76 248 55.83 246.08 53.91"/><polygon class="cls-1" points="246.08 85.19 248 83.26 246.08 81.34 246.08 85.19"/><polygon class="cls-1" points="264.21 69.34 259.18 68.28 246.08 81.43 246.08 85.09 247.26 86.28 261.89 71.71 274.69 86.28 277.71 83.26 264 69.55 264.21 69.34"/><polygon class="cls-1" points="246.08 51.27 246.08 56.54 270.51 82.1 246.08 82.1 246.08 89.12 283.42 89.12 251.78 51.27 246.08 51.27"/><rect class="cls-1" x="246.08" y="54.32" width="5.69" height="32.36"/><polygon class="cls-1" points="85.58 12.49 71.64 12.49 72.21 11.44 85.01 11.44 85.58 12.49"/><polygon class="cls-1" points="61.71 35.56 67.97 35.56 78.16 23.1 87.91 35.56 94.17 35.56 80.09 20.74 85.64 13.97 83.97 12.99 78.24 18.79 72.72 12.99 71.02 13.97 76.32 20.74 61.71 35.56"/><polygon class="cls-1" points="66.28 36.56 73.45 14.85 83.78 14.85 90.94 36.56 98.21 36.56 85.58 12.49 71.64 12.49 59.01 36.56 66.28 36.56"/><polygon class="cls-1" points="95.68 36.56 93.09 30.9 64.67 30.9 62.17 36.56 95.68 36.56"/><polygon class="cls-1" points="73.09 11.44 75.14 11.44 78.47 7.37 81.65 11.44 83.69 11.44 79.1 6.6 80.91 4.39 80.36 4.07 78.49 5.97 76.69 4.07 76.13 4.39 77.86 6.6 73.09 11.44"/><polygon class="cls-1" points="74.58 11.44 76.93 4.35 80.3 4.35 82.64 11.44 85.01 11.44 80.89 3.58 76.33 3.58 72.21 11.44 74.58 11.44"/><polygon class="cls-1" points="84.19 11.44 83.34 9.59 74.06 9.59 73.24 11.44 84.19 11.44"/><rect class="cls-1" x="32.66" y="533.97" width="93.17" height="21.19"/><rect class="cls-1" x="199.08" y="89.12" width="5.69" height="121.85"/><rect class="cls-1" x="59.01" y="36.56" width="39.27" height="43.36"/><polygon class="cls-1" points="95.33 498.68 92.19 495.55 77.94 509.79 63.69 495.55 60.55 498.68 74.8 512.93 60.55 527.18 63.69 530.32 77.94 516.07 92.19 530.32 95.33 527.18 81.08 512.93 95.33 498.68"/><polygon class="cls-1" points="95.33 467.81 92.19 464.67 77.94 478.92 63.69 464.67 60.55 467.81 74.8 482.06 60.55 496.31 63.69 499.45 77.94 485.2 92.19 499.45 95.33 496.31 81.08 482.06 95.33 467.81"/><polygon class="cls-1" points="95.33 436.94 92.19 433.8 77.94 448.05 63.69 433.8 60.55 436.94 74.8 451.19 60.55 465.44 63.69 468.58 77.94 454.33 92.19 468.58 95.33 465.44 81.08 451.19 95.33 436.94"/><polygon class="cls-1" points="95.33 405.07 92.19 401.93 77.94 416.18 63.69 401.93 60.55 405.07 74.8 419.31 60.55 433.56 63.69 436.7 77.94 422.45 92.19 436.7 95.33 433.56 81.08 419.31 95.33 405.07"/><polygon class="cls-1" points="95.33 373.19 92.19 370.05 77.94 384.3 63.69 370.05 60.55 373.19 74.8 387.44 60.55 401.69 63.69 404.83 77.94 390.58 92.19 404.83 95.33 401.69 81.08 387.44 95.33 373.19"/><polygon class="cls-1" points="95.33 343.32 92.19 340.18 77.94 354.43 63.69 340.18 60.55 343.32 74.8 357.57 60.55 371.82 63.69 374.96 77.94 360.71 92.19 374.96 95.33 371.82 81.08 357.57 95.33 343.32"/><polygon class="cls-1" points="95.33 310.45 92.19 307.31 77.94 321.56 63.69 307.31 60.55 310.45 74.8 324.7 60.55 338.95 63.69 342.09 77.94 327.84 92.19 342.09 95.33 338.95 81.08 324.7 95.33 310.45"/><path class="cls-1" d="M214.1,411V642h39.33V411Zm32,222.82H221.39V420.06h24.74Z" transform="translate(-155.15 -108.21)"/><rect class="cls-1" x="62.12" y="495.28" width="33.62" height="6.34"/><rect class="cls-1" x="62.12" y="463.87" width="33.62" height="6.34"/><rect class="cls-1" x="62.12" y="432.47" width="33.62" height="6.34"/><rect class="cls-1" x="62.12" y="401.07" width="33.62" height="6.34"/><rect class="cls-1" x="62.12" y="369.67" width="33.62" height="6.34"/><rect class="cls-1" x="62.12" y="338.27" width="33.62" height="6.34"/><line class="cls-3" x1="77.77" y1="1.92" x2="251.19" y2="53.21"/><line class="cls-3" x1="1.1" y1="52.96" x2="79.43" y2="1.68"/></g></svg>