<svg width="101" height="30" viewBox="0 0 101 30" fill="none" xmlns="http://www.w3.org/2000/svg">
<path d="M24.6188 23.5434C24.6188 24.5428 24.1532 25.0424 23.2218 25.0424C22.3178 25.0424 21.8659 24.5543 21.8662 23.5781V21.6562H22.6184V23.5872C22.6184 24.1256 22.8288 24.3948 23.2495 24.3948C23.6628 24.3948 23.8695 24.135 23.8695 23.6153V21.6562H24.6192L24.6188 23.5434Z" fill="white"/>
<path d="M22.3391 14.3493C22.337 14.1811 22.3353 14.0133 22.3353 13.8467H14.8294V16.5489H18.745C18.0944 18.3827 16.3999 19.69 14.4086 19.69C11.8573 19.69 9.78913 17.5408 9.78913 14.8887C9.78913 12.2365 11.8556 10.0869 14.4086 10.0869C15.9531 10.0869 17.3195 10.8755 18.1585 12.0857L20.8582 10.2692C19.4294 8.27955 17.1166 6.98633 14.5053 6.98633C10.1656 6.98633 6.64844 10.5577 6.64844 14.9631C6.64844 19.3685 10.1661 22.9398 14.5053 22.9398C18.8446 22.9398 22.3626 19.3685 22.3626 14.9631C22.3626 14.7568 22.3544 14.5518 22.3391 14.3493Z" fill="white"/>
<path d="M0 0V30.0004H30.0004V0H0ZM26.8254 26.8254H3.09523V3.09523H26.8254V26.8254Z" fill="white"/>
<path d="M48.3591 16.5054C48.3591 19.5713 46.2246 21.4307 43.4165 21.4307C40.2644 21.4307 38 19.1094 38 16.2297C38 13.3213 40.3072 11 43.2586 11C45.1775 11 46.7977 11.9454 47.6433 13.2925L45.6943 14.41C45.2792 13.7511 44.376 13.2349 43.2445 13.2349C41.5539 13.2349 40.2925 14.4816 40.2925 16.2413C40.2925 17.9466 41.4963 19.1932 43.4447 19.1932C44.7777 19.1932 45.6515 18.6054 46.0097 17.6459H43.3302V15.6457H48.3591V16.5054Z" fill="white"/>
<path d="M53.8756 13.9258V16.3615C52.9877 16.2183 51.7264 16.5765 51.7264 17.9946V21.2331H49.5771V14.0691H51.7264V15.3439C52.0129 14.3838 52.973 13.9258 53.8756 13.9258Z" fill="white"/>
<path d="M54.3047 17.652C54.3047 15.5169 55.9953 13.8691 58.1016 13.8691C60.208 13.8691 61.8986 15.5169 61.8986 17.652C61.8986 19.7871 60.208 21.4342 58.1016 21.4342C55.9953 21.4342 54.3047 19.7865 54.3047 17.652ZM59.7494 17.652C59.7494 16.6343 59.0329 15.9608 58.1016 15.9608C57.1703 15.9608 56.4539 16.6343 56.4539 17.652C56.4539 18.6697 57.1703 19.3426 58.1016 19.3426C59.0329 19.3426 59.7494 18.669 59.7494 17.652Z" fill="white"/>
<path d="M69.8941 14.0703V21.2343H67.7449V20.5608C67.3611 21.0911 66.6422 21.4346 65.698 21.4346C64.2512 21.4346 63.0186 20.4028 63.0186 18.4685V14.0703H65.1678V18.1538C65.1678 19.0416 65.7268 19.4574 66.4144 19.4574C67.2025 19.4574 67.7468 18.9988 67.7468 17.9818V14.0703H69.8941Z" fill="white"/>
<path d="M79.1781 17.652C79.1781 19.7865 77.6308 21.4342 75.7541 21.4342C74.7946 21.4342 74.091 21.1048 73.6189 20.5605V24.0996H71.4697V14.07H73.6189V14.7429C74.0916 14.1986 74.794 13.8691 75.7541 13.8691C77.6308 13.8691 79.1781 15.5143 79.1781 17.652ZM77.0289 17.652C77.0289 16.5774 76.3125 15.9039 75.3242 15.9039C74.336 15.9039 73.6189 16.5774 73.6189 17.652C73.6189 18.7266 74.3353 19.3995 75.3242 19.3995C76.3131 19.3995 77.0302 18.7266 77.0302 17.652H77.0289Z" fill="white"/>
<path d="M83.9785 17.9942V11.2031H86.271V17.7915C86.271 18.5507 86.6292 19.1987 87.8471 19.1987C89.065 19.1987 89.4232 18.5539 89.4232 17.7915V11.2031H91.7157V17.9942C91.7157 20.1434 90.0526 21.433 87.8471 21.433C85.6416 21.433 83.9785 20.1434 83.9785 17.9942Z" fill="white"/>
<path d="M101 17.652C101 19.7865 99.4531 21.4342 97.5757 21.4342C96.6162 21.4342 95.9126 21.1048 95.4412 20.5605V24.0996H93.292V14.07H95.4412V14.7429C95.9139 14.1986 96.6162 13.8691 97.5757 13.8691C99.4531 13.8691 101 15.5143 101 17.652ZM98.8512 17.652C98.8512 16.5774 98.1348 15.9039 97.1459 15.9039C96.157 15.9039 95.4412 16.5774 95.4412 17.652C95.4412 18.7266 96.1576 19.3995 97.1459 19.3995C98.1341 19.3995 98.8512 18.7266 98.8512 17.652Z" fill="white"/>
</svg>
