<svg xmlns="http://www.w3.org/2000/svg" viewBox="0 0 1836.54 725.86"><defs><style>.cls-1{opacity:0.98;}.cls-2{fill:#fff;}</style></defs><title>lg_full_white</title><g id="Layer_1" data-name="Layer 1"><g class="cls-1"><path class="cls-2" d="M987.18,836.73V747.16h54.73V762h-38.09v23.27H1034v14.82h-30.16v36.66Z" transform="translate(-116.19 -298.61)"/><path class="cls-2" d="M1121.86,810.21l13.13,9.62a42.33,42.33,0,0,1-15.47,13.32,45.13,45.13,0,0,1-20.93,4.88,42.93,42.93,0,0,1-32-13.46,44.88,44.88,0,0,1-13.07-32.43q0-19.25,13.07-32.63a43,43,0,0,1,32-13.39,45.26,45.26,0,0,1,20.61,4.74,42.4,42.4,0,0,1,15.4,12.94l-13.26,9.49q-8.83-11.44-22.75-11.44a26.55,26.55,0,0,0-20.28,8.84,32.09,32.09,0,0,0,0,42.83,26.63,26.63,0,0,0,20.28,8.78,27.49,27.49,0,0,0,13.13-3.25A29.35,29.35,0,0,0,1121.86,810.21Z" transform="translate(-116.19 -298.61)"/><path class="cls-2" d="M1150.72,759.31a9,9,0,0,1-3-6.82,8.69,8.69,0,0,1,3.06-6.76A10.46,10.46,0,0,1,1158,743a10,10,0,0,1,7.09,2.73,8.87,8.87,0,0,1,2.92,6.76,9.05,9.05,0,0,1-2.92,6.82,9.87,9.87,0,0,1-7.09,2.8A10.24,10.24,0,0,1,1150.72,759.31ZM1165.8,776v60.71h-15.73V776Z" transform="translate(-116.19 -298.61)"/><path class="cls-2" d="M1245.49,806.18c0,1.73-.09,3.55-.26,5.46H1199a13.66,13.66,0,0,0,5.39,9.49,18.26,18.26,0,0,0,11.38,3.51,20.26,20.26,0,0,0,9-2,13.76,13.76,0,0,0,6.24-5.78q2.85,1.56,12.09,6.5a24.71,24.71,0,0,1-11.57,11,38.75,38.75,0,0,1-16.77,3.64,30.72,30.72,0,0,1-22.36-8.91q-9.1-8.89-9.1-22.94t9.1-22.75a31.08,31.08,0,0,1,22.36-8.71q13.26,0,22,8.71T1245.49,806.18Zm-46.67-5.33H1230a14.46,14.46,0,0,0-5.07-9.49,15.61,15.61,0,0,0-10.14-3.38,16.8,16.8,0,0,0-10.73,3.44A14.25,14.25,0,0,0,1198.82,800.85Z" transform="translate(-116.19 -298.61)"/><path class="cls-2" d="M1278,804.36v32.37h-15.86V776H1278v9a18.18,18.18,0,0,1,7.54-7.48,21.56,21.56,0,0,1,10.53-2.79q10.79,0,16.7,6.69t5.92,19.44v35.88h-15.86v-33q0-6.5-3.12-10a10.74,10.74,0,0,0-8.45-3.51,13.66,13.66,0,0,0-9.56,3.38Q1278,796.95,1278,804.36Z" transform="translate(-116.19 -298.61)"/><path class="cls-2" d="M1344.81,829.06q-9.63-9-9.62-22.88t9.62-22.69a34.7,34.7,0,0,1,37.44-5.65,29.16,29.16,0,0,1,10.92,8.71L1380.56,796q-4.43-6-12.61-6a17.45,17.45,0,0,0-12,4.48,14.81,14.81,0,0,0-5.07,11.64,15.59,15.59,0,0,0,5.07,11.89,16.89,16.89,0,0,0,12,4.75q8.19,0,12.61-6.11l12.74,9.36a28.64,28.64,0,0,1-11,8.84A33.57,33.57,0,0,1,1368,838,32.71,32.71,0,0,1,1344.81,829.06Z" transform="translate(-116.19 -298.61)"/><path class="cls-2" d="M1410.58,759.31a9,9,0,0,1-3-6.82,8.69,8.69,0,0,1,3.06-6.76,10.48,10.48,0,0,1,7.22-2.73,10,10,0,0,1,7.08,2.73,8.87,8.87,0,0,1,2.93,6.76,9.06,9.06,0,0,1-2.93,6.82,9.85,9.85,0,0,1-7.08,2.8A10.26,10.26,0,0,1,1410.58,759.31ZM1425.67,776v60.71h-15.74V776Z" transform="translate(-116.19 -298.61)"/><path class="cls-2" d="M1492.87,836.73v-7.8a17.52,17.52,0,0,1-8.25,6.63,27.19,27.19,0,0,1-10.6,2.34,30.5,30.5,0,0,1-21.71-8.78q-9.22-8.77-9.23-22.81t9.17-22.82a30.41,30.41,0,0,1,21.77-8.77,28.27,28.27,0,0,1,10.47,2.14,17.48,17.48,0,0,1,8.38,6.7V776h15.86v60.71Zm-28.4-42.19a16.32,16.32,0,0,0,0,23.53,17.38,17.38,0,0,0,23.46.13,15.26,15.26,0,0,0,4.94-11.89q0-7.54-5-12a17,17,0,0,0-11.64-4.42A16.8,16.8,0,0,0,1464.47,794.54Z" transform="translate(-116.19 -298.61)"/><path class="cls-2" d="M1544.61,811.38a40.77,40.77,0,0,1-9.23-3.64,14.55,14.55,0,0,1-5.26-4.68,16,16,0,0,1-2.15-4.88,24.8,24.8,0,0,1-.52-5.39q0-7.27,6.63-12.68a24.19,24.19,0,0,1,15.73-5.39,28.39,28.39,0,0,1,16.45,4.68q6.83,4.68,7.21,14.43h-15.08a5.46,5.46,0,0,0-2.6-4.68,10.26,10.26,0,0,0-5.59-1.56q-7.67,0-7.67,6c0,2.25,2.13,3.94,6.37,5.07l10.14,2.47a26.32,26.32,0,0,1,8.32,3.64,15.07,15.07,0,0,1,4.88,5.13,24.38,24.38,0,0,1,2.08,5,17.2,17.2,0,0,1,.58,4.42,15.71,15.71,0,0,1-7.34,13.78,30.64,30.64,0,0,1-17.49,4.94,27.4,27.4,0,0,1-17-5.53,18,18,0,0,1-7.48-14.88h14.82a7.36,7.36,0,0,0,3.58,5.52,12.37,12.37,0,0,0,7.6,2.15,9.92,9.92,0,0,0,5.66-1.82,5.16,5.16,0,0,0,2.27-4.29,4.11,4.11,0,0,0-1.49-3.58,12.23,12.23,0,0,0-5.14-2.14Z" transform="translate(-116.19 -298.61)"/><path class="cls-2" d="M1651,817.49A16.94,16.94,0,0,0,1663,822.3a17.19,17.19,0,0,0,12.16-4.81,16.17,16.17,0,0,0,5.13-12.35v-58H1697v58q0,14.57-9.94,23.72a36.14,36.14,0,0,1-48.11,0q-9.95-9.17-9.94-23.72v-58h16.9v58A16.27,16.27,0,0,0,1651,817.49Z" transform="translate(-116.19 -298.61)"/><path class="cls-2" d="M1721.67,836.73V747.16h16.64v74.75h34.58v14.82Z" transform="translate(-116.19 -298.61)"/></g><polygon class="cls-2" points="1119.81 457.94 1098.75 444.84 1098.74 444.85 1098.74 444.84 1077.67 457.95 1083.37 467.11 1098.74 457.54 1114.11 467.1 1119.81 457.94"/><path class="cls-2" d="M1129.76,569.5c0,47.93-33.37,77-77.27,77-49.28,0-84.68-36.29-84.68-81.31,0-45.47,36.07-81.76,82.21-81.76,30,0,55.33,14.78,68.55,35.84l-30.47,17.47c-6.49-10.3-20.61-18.37-38.3-18.37-26.43,0-46.15,19.49-46.15,47,0,26.66,18.82,46.15,49.28,46.15,20.84,0,34.5-9.19,40.1-24.19h-41.89V556.06h78.62Z" transform="translate(-116.19 -298.61)"/><path class="cls-2" d="M1216,529.18v38.08c-13.88-2.24-33.6,3.36-33.6,25.53v50.63h-33.6v-112h33.6v19.93C1186.88,536.34,1201.89,529.18,1216,529.18Z" transform="translate(-116.19 -298.61)"/><path class="cls-2" d="M1222.72,587.42c0-33.38,26.43-59.14,59.36-59.14s59.36,25.76,59.36,59.14-26.43,59.13-59.36,59.13S1222.72,620.79,1222.72,587.42Zm85.12,0c0-15.91-11.2-26.44-25.76-26.44s-25.76,10.53-25.76,26.44,11.2,26.43,25.76,26.43S1307.84,603.32,1307.84,587.42Z" transform="translate(-116.19 -298.61)"/><path class="cls-2" d="M1466.43,531.42v112h-33.6V632.89c-6,8.29-17.24,13.66-32,13.66-22.62,0-41.89-16.13-41.89-46.37V531.42h33.6v63.84c0,13.88,8.74,20.38,19.49,20.38,12.32,0,20.83-7.17,20.83-23.07V531.42Z" transform="translate(-116.19 -298.61)"/><path class="cls-2" d="M1611.58,587.42c0,33.37-24.19,59.13-53.53,59.13-15,0-26-5.15-33.38-13.66v55.33h-33.6V531.42h33.6v10.52c7.39-8.51,18.37-13.66,33.38-13.66C1587.39,528.28,1611.58,554,1611.58,587.42Zm-33.6,0c0-16.8-11.2-27.33-26.65-27.33s-26.66,10.53-26.66,27.33,11.2,27.32,26.66,27.32S1578,604.22,1578,587.42Z" transform="translate(-116.19 -298.61)"/><path class="cls-2" d="M1686.62,592.79V486.62h35.84v103c0,11.87,5.6,22,24.64,22s24.64-10.08,24.64-22v-103h35.84V592.79c0,33.6-26,53.76-60.48,53.76S1686.62,626.39,1686.62,592.79Z" transform="translate(-116.19 -298.61)"/><path class="cls-2" d="M1952.73,587.42c0,33.37-24.19,59.13-53.54,59.13-15,0-26-5.15-33.37-13.66v55.33h-33.6V531.42h33.6v10.52c7.39-8.51,18.37-13.66,33.37-13.66C1928.54,528.28,1952.73,554,1952.73,587.42Zm-33.6,0c0-16.8-11.2-27.33-26.66-27.33s-26.65,10.53-26.65,27.33,11.2,27.32,26.65,27.32S1919.13,604.22,1919.13,587.42Z" transform="translate(-116.19 -298.61)"/></g><g id="U"><path class="cls-2" d="M711.85,868.26q0,36.27-33.8,36.27-32.81,0-32.8-35.43V822.6h18.2v46.72q0,19.54,15.27,19.54,15,0,15-18.86V822.6h18.14Z" transform="translate(-116.19 -298.61)"/></g><g id="G"><path class="cls-2" d="M656.7,645.78c-.05-4.07-.09-8.13-.09-12.16H475V699h94.74C554,743.37,513,775,464.82,775c-61.73,0-111.77-52-111.77-116.17s50-116.18,111.77-116.18c37.37,0,70.43,19.08,90.73,48.36l65.32-43.95c-34.57-48.14-90.53-79.43-153.71-79.43-105,0-190.1,86.41-190.1,193s85.11,193,190.1,193,190.11-86.41,190.11-193C657.27,655.64,657.07,650.68,656.7,645.78Z" transform="translate(-116.19 -298.61)"/></g><g id="box"><path class="cls-2" d="M116.19,298.61v725.87H842.06V298.61ZM765.24,947.66H191.08V373.5H765.24Z" transform="translate(-116.19 -298.61)"/></g></svg>